<?xml version="1.0" encoding="utf-8"?>
<!-- Generator: Adobe Illustrator 19.2.1, SVG Export Plug-In . SVG Version: 6.00 Build 0)  -->
<svg version="1.1" id="Layer_1" xmlns="http://www.w3.org/2000/svg" xmlns:xlink="http://www.w3.org/1999/xlink" x="0px" y="0px"
	 viewBox="0 0 92.3 92.3" style="enable-background:new 0 0 92.3 92.3;" xml:space="preserve">
<style type="text/css">
	.st0{fill:#D61F38;}
	.st1{fill:#010101;}
</style>
<g>
	<path class="st0" d="M76.4,51.8c1.1,1.1,2.9,1.1,3.9,0c4.7-4.7,4.7-12.2,0-16.9c-1.1-1.1-2.9-1.1-3.9,0c-1.1,1.1-1.1,2.9,0,3.9
		c2.5,2.5,2.5,6.5,0,9C75.3,49,75.3,50.7,76.4,51.8z"/>
	<path class="st0" d="M87.1,56.1c7-7,7-18.4,0-25.4c-1.1-1.1-2.9-1.1-3.9,0c-1.1,1.1-1.1,2.9,0,3.9c4.8,4.8,4.8,12.7,0,17.5
		c-1.1,1.1-1.1,2.9,0,3.9C84.2,57.2,86,57.2,87.1,56.1z"/>
	<path class="st0" d="M16,34.9c-1.1-1.1-2.9-1.1-3.9,0c-4.7,4.7-4.7,12.2,0,16.9c1.1,1.1,2.9,1.1,3.9,0c1.1-1.1,1.1-2.9,0-3.9
		c-2.5-2.5-2.5-6.5,0-9C17.1,37.8,17.1,36,16,34.9z"/>
	<path class="st0" d="M9.2,56.1c1.1-1.1,1.1-2.9,0-3.9c-4.8-4.8-4.8-12.7,0-17.5c1.1-1.1,1.1-2.9,0-3.9c-1.1-1.1-2.9-1.1-3.9,0
		c-7,7-7,18.4,0,25.4C6.4,57.2,8.1,57.2,9.2,56.1z"/>
	<path class="st1" d="M2.9,20c1.5,0,2.8-1.2,2.8-2.8V5.6h11.6c1.5,0,2.8-1.2,2.8-2.8S18.9,0,17.3,0H2.9C1.4,0,0.1,1.3,0.1,2.8v14.4
		C0.1,18.8,1.4,20,2.9,20z"/>
	<path class="st1" d="M75,5.6h11.6v11.6c0,1.5,1.2,2.8,2.8,2.8s2.8-1.2,2.8-2.8V2.8C92.2,1.3,91,0,89.4,0H75c-1.5,0-2.8,1.2-2.8,2.8
		S73.5,5.6,75,5.6z"/>
	<path class="st1" d="M89.4,72.3c-1.5,0-2.8,1.2-2.8,2.8v11.6H75c-1.5,0-2.8,1.2-2.8,2.8s1.2,2.8,2.8,2.8h14.4
		c1.5,0,2.8-1.2,2.8-2.8V75.1C92.2,73.6,91,72.3,89.4,72.3z"/>
	<path class="st1" d="M17.3,86.7H5.7V75.1c0-1.5-1.2-2.8-2.8-2.8s-2.8,1.2-2.8,2.8v14.4c0,1.5,1.2,2.8,2.8,2.8h14.4
		c1.5,0,2.8-1.2,2.8-2.8S18.9,86.7,17.3,86.7z"/>
	<path class="st1" d="M64.1,27.9L54.1,12.3c0.4-0.3,0.6-0.8,0.6-1.4V1.8c0-1-0.8-1.8-1.8-1.8H39.2c-1,0-1.8,0.8-1.8,1.8v9.1
		c0,0.6,0.2,1,0.6,1.4L28,27.9c-0.2,0.3-0.3,0.6-0.3,1v13.7v21.1v21.2c0,4,3.3,7.3,7.3,7.3c2.2,0,4.2-1,5.5-2.5
		c1.3,1.5,3.3,2.5,5.5,2.5c2.2,0,4.2-1,5.5-2.5c1.3,1.5,3.3,2.5,5.5,2.5c4,0,7.3-3.3,7.3-7.3V63.6V42.6V28.9
		C64.4,28.5,64.3,28.2,64.1,27.9z M41,3.6h10.1v5.5h-0.1h-10H41L41,3.6L41,3.6z M42.1,12.7h8l10.7,16.7v11.3H31.3V29.4L42.1,12.7z
		 M60.8,61.8H31.3V44.4h29.5V61.8z M57.1,88.6c-2,0-3.7-1.7-3.7-3.7c0-1-0.8-1.8-1.8-1.8c-1,0-1.8,0.8-1.8,1.8c0,2-1.7,3.7-3.7,3.7
		c-2,0-3.7-1.7-3.7-3.7c0-1-0.8-1.8-1.8-1.8c-1,0-1.8,0.8-1.8,1.8c0,2-1.7,3.7-3.7,3.7c-2,0-3.7-1.7-3.7-3.7V65.4h29.5v19.4
		C60.8,86.9,59.2,88.6,57.1,88.6z"/>
</g>
</svg>
