<?xml version="1.0" encoding="utf-8"?>
<!-- Generator: Adobe Illustrator 19.2.1, SVG Export Plug-In . SVG Version: 6.00 Build 0)  -->
<svg version="1.1" id="Layer_1" xmlns="http://www.w3.org/2000/svg" xmlns:xlink="http://www.w3.org/1999/xlink" x="0px" y="0px"
	 viewBox="0 0 97.4 97.4" style="enable-background:new 0 0 97.4 97.4;" xml:space="preserve">
<style type="text/css">
	.st0{fill:#010101;}
	.st1{fill:#D61F38;}
</style>
<g id="coupon_1_">
	<path class="st0" d="M82.1,52.2L80.3,55c5.4,3.4,7.4,10.7,7.4,16.5h3.2C90.9,64.8,88.6,56.3,82.1,52.2z"/>
	<path class="st0" d="M87.4,48.1L65,34.8V4.9C65,2.2,62.8,0,60.1,0h-39c-2.7,0-4.9,2.2-4.9,4.9v3.8l-2-0.5c-0.9-0.2-1.7,0.3-2,1.1
		l-1.1,3.9l-4,0.4c-0.9,0.1-1.5,0.9-1.5,1.7l0.3,4l-3.6,1.7c-0.8,0.4-1.1,1.3-0.8,2.1l1.6,3.7l-2.8,2.9c-0.6,0.6-0.6,1.6,0,2.3
		l2.8,2.9l-1.6,3.7c-0.4,0.8,0,1.7,0.8,2.1L6,42.4l-0.3,4c-0.1,0.9,0.6,1.6,1.5,1.7l4,0.4l1.1,3.9c0.2,0.8,1.1,1.4,2,1.1l2-0.5v7.1
		c0,2.7,2.2,4.9,4.9,4.9h16.3c0.2,0.3,0.4,0.6,0.7,0.9l12.2,14.4v2.6c0,8.1,6.5,14.6,14.6,14.6h29.2c1.8,0,3.2-1.5,3.2-3.2V66.1
		C97.5,58.7,93.7,51.9,87.4,48.1L87.4,48.1z M14,46.6c-0.2-0.6-0.7-1.1-1.4-1.2l-3.5-0.4l0.3-3.5c0-0.7-0.3-1.3-0.9-1.6l-3.2-1.5
		l1.5-3.2c0.3-0.6,0.1-1.3-0.3-1.8l-2.5-2.5l2.5-2.5c0.5-0.5,0.6-1.2,0.3-1.8l-1.5-3.2l3.2-1.5c0.6-0.3,1-0.9,0.9-1.6l-0.3-3.5
		l3.5-0.4c0.7-0.1,1.2-0.5,1.4-1.2l1-3.4l3.4,0.9c0.6,0.2,1.3-0.1,1.7-0.6l2.1-2.9l2.9,2c0.6,0.4,1.3,0.4,1.8,0l2.9-2l2.1,2.9
		c0.4,0.5,1.1,0.8,1.7,0.6l3.4-0.9l1,3.4c0.2,0.6,0.7,1.1,1.4,1.2l3.5,0.4l-0.3,3.5c0,0.7,0.3,1.3,0.9,1.6l3.2,1.5l-1.5,3.2
		c-0.3,0.6-0.1,1.3,0.3,1.8l2.5,2.5l-2.5,2.5c-0.5,0.5-0.6,1.2-0.3,1.8l1.5,3.2l-3.2,1.5c-0.6,0.3-1,0.9-0.9,1.6l0.3,3.5l-3.5,0.4
		c-0.7,0.1-1.2,0.5-1.4,1.2L37,50l-3.4-0.9c-0.6-0.2-1.3,0.1-1.7,0.6l-2.1,2.9l-2.9-2c-0.6-0.4-1.3-0.4-1.8,0l-2.9,2l-2.1-2.9
		c-0.3-0.4-0.8-0.7-1.3-0.7c-0.1,0-0.3,0-0.4,0.1L14.9,50L14,46.6z M21.1,61.7c-0.9,0-1.6-0.7-1.6-1.6v-5.6l1,1.3
		c0.5,0.7,1.5,0.9,2.2,0.4l3.3-2.3l3.3,2.3c0.7,0.5,1.7,0.3,2.2-0.4l2.3-3.2l3.9,1c0.9,0.2,1.7-0.3,2-1.1l1.1-3.9l4-0.4
		c0.9-0.1,1.5-0.9,1.5-1.7l-0.3-4l3.6-1.7c0.8-0.4,1.1-1.3,0.8-2.1l-1.7-3.7l2.8-2.9c0.6-0.6,0.6-1.6,0-2.3l-2.8-2.9l1.6-3.7
		c0.4-0.8,0-1.7-0.8-2.1L46,19.3l0.3-4c0.1-0.9-0.6-1.6-1.5-1.7l-4-0.4l-1.1-3.9c-0.2-0.8-1.1-1.4-2-1.1l-3.9,1l-2.3-3.2
		C31,5.2,30,5,29.3,5.5L26,7.8l-3.3-2.3C21.9,5,21,5.2,20.4,5.9l-1,1.3V4.9c0-0.9,0.7-1.6,1.6-1.6h39c0.9,0,1.6,0.7,1.6,1.6v55.2
		c0,0.9-0.7,1.6-1.6,1.6h-2.9l-7.5-7.3c-3.2-3.2-8.3-3.2-11.5,0c-1.9,1.9-2.7,4.6-2.2,7.3L21.1,61.7z M94.2,94.2H65
		c-6.3,0-11.4-5.1-11.4-11.4v-3.2c0-0.4-0.1-0.8-0.4-1.1L40.5,63.6c-1.9-1.9-1.9-5,0-6.9c1.9-1.8,5-1.8,6.9,0l21.3,20.8l2.3-2.3
		L60.5,64.9c2.5-0.2,4.5-2.3,4.5-4.8V38.6l20.8,12.3c5.3,3.2,8.5,9,8.5,15.2L94.2,94.2z"/>
	<path class="st1" d="M34.1,32.5c-3.6,0-6.5,2.9-6.5,6.5c0,3.6,2.9,6.5,6.5,6.5c3.6,0,6.5-2.9,6.5-6.5
		C40.6,35.4,37.7,32.5,34.1,32.5z M34.1,42.2c-1.8,0-3.2-1.5-3.2-3.2s1.5-3.2,3.2-3.2c1.8,0,3.2,1.5,3.2,3.2S35.9,42.2,34.1,42.2z"
		/>
	<path class="st1" d="M17.9,29.2c3.6,0,6.5-2.9,6.5-6.5s-2.9-6.5-6.5-6.5s-6.5,2.9-6.5,6.5S14.3,29.2,17.9,29.2z M17.9,19.5
		c1.8,0,3.2,1.5,3.2,3.2S19.7,26,17.9,26c-1.8,0-3.2-1.5-3.2-3.2S16.1,19.5,17.9,19.5z"/>
	<path class="st1" d="M11.8,42.7l26-26l2.3,2.3l-26,26L11.8,42.7z"/>
	<path class="st1" d="M71.5,9.7h3.2V6.5h3.2V3.2h-3.2V0h-3.2v3.2h-3.2v3.2h3.2V9.7z"/>
	<path class="st1" d="M6.5,9.7h3.2V6.5H13V3.2H9.7V0H6.5v3.2H3.2v3.2h3.2V9.7z"/>
	<path class="st1" d="M77.9,13v3.2h3.2v3.2h3.2v-3.2h3.2V13h-3.2V9.7h-3.2V13H77.9z"/>
</g>
</svg>
