<?xml version="1.0" encoding="utf-8"?>
<!-- Generator: Adobe Illustrator 19.2.1, SVG Export Plug-In . SVG Version: 6.00 Build 0)  -->
<svg version="1.1" id="Layer_1" xmlns="http://www.w3.org/2000/svg" xmlns:xlink="http://www.w3.org/1999/xlink" x="0px" y="0px"
	 viewBox="0 0 100.6 100.9" style="enable-background:new 0 0 100.6 100.9;" xml:space="preserve">
<style type="text/css">
	.st0{fill:#010101;}
	.st1{fill:#D61F38;}
</style>
<g>
	<g>
		<g>
			<path class="st0" d="M88.8,25.3c-1.2,0-2.4,0.2-3.6,0.6c0.1-0.9,0.2-1.8,0.2-2.7C85.1,10.1,74.4-0.2,61.4,0
				c-9.5,0.2-18,6-21.5,14.8c-6.8-4.2-15.7-2.1-20,4.7c-1.4,2.2-2.1,4.8-2.2,7.4c-1.8-1.1-3.9-1.6-6-1.6C5.3,25.3,0,30.5,0,37
				s5.3,11.8,11.8,11.8c0.9,0,1.7-0.8,1.7-1.7s-0.8-1.7-1.7-1.7c-4.6-0.1-8.3-3.9-8.3-8.5c0.1-4.6,3.9-8.3,8.5-8.3
				c2.8,0,5.4,1.5,7,3.9c0.5,0.8,1.6,1,2.3,0.5c0.7-0.4,0.9-1.3,0.6-2c-0.5-1.3-0.8-2.6-0.8-4c0.1-6.1,5.1-11,11.2-10.9
				c2.7,0,5.3,1,7.4,2.8c0.7,0.6,1.8,0.5,2.4-0.2c0.2-0.2,0.3-0.4,0.4-0.7c3.1-10.7,14.3-16.9,25-13.8c8.5,2.4,14.4,10.1,14.6,19
				c0,1.8-0.3,3.5-0.7,5.2c-0.2,0.9,0.3,1.8,1.2,2.1c0.5,0.1,1,0,1.4-0.2c1.5-1,3.2-1.6,5-1.6c4.6,0,8.4,3.8,8.4,8.4
				s-3.8,8.4-8.4,8.4c-0.9,0-1.7,0.8-1.7,1.7s0.8,1.7,1.7,1.7c6.5,0,11.8-5.3,11.8-11.8C100.6,30.5,95.3,25.3,88.8,25.3z"/>
		</g>
	</g>
	<g>
		<g>
			<path class="st0" d="M78.9,63.9H21.7c-2.8,0-5,2.3-5,5v6.7c0,2.8,2.3,5,5,5h57.2c2.8,0,5-2.3,5-5V69
				C83.9,66.2,81.7,63.9,78.9,63.9z M80.6,75.7c0,0.9-0.8,1.7-1.7,1.7H21.7c-0.9,0-1.7-0.8-1.7-1.7V69c0-0.9,0.8-1.7,1.7-1.7h57.2
				c0.9,0,1.7,0.8,1.7,1.7V75.7z"/>
		</g>
	</g>
	<g>
		<g>
			<path class="st1" d="M74.2,69.1c-1.8,0-3.2,1.5-3.2,3.3c0,1.8,1.5,3.3,3.3,3.3c1.8,0,3.3-1.5,3.2-3.3
				C77.5,70.5,76,69.1,74.2,69.1z M74.2,72.5c-0.1,0-0.1-0.1-0.1-0.1l0.1-0.1V72.5z"/>
		</g>
	</g>
	<g>
		<g>
			<path class="st0" d="M56.7,70.7h-32c-0.9,0-1.7,0.8-1.7,1.7s0.8,1.7,1.7,1.7h32c0.9,0,1.7-0.8,1.7-1.7S57.6,70.7,56.7,70.7z"/>
		</g>
	</g>
	<g>
		<g>
			<path class="st0" d="M67.1,70.7h-4.5c-0.9,0-1.7,0.8-1.7,1.7s0.8,1.7,1.7,1.7h4.5c0.9,0,1.7-0.8,1.7-1.7S68,70.7,67.1,70.7z"/>
		</g>
	</g>
	<g>
		<g>
			<path class="st0" d="M78.9,84.1H21.7c-2.8,0-5,2.3-5,5v6.7c0,2.8,2.3,5,5,5h57.2c2.8,0,5-2.3,5-5v-6.7
				C83.9,86.4,81.7,84.1,78.9,84.1z M80.6,95.9c0,0.9-0.8,1.7-1.7,1.7H21.7c-0.9,0-1.7-0.8-1.7-1.7v-6.7c0-0.9,0.8-1.7,1.7-1.7h57.2
				c0.9,0,1.7,0.8,1.7,1.7V95.9z"/>
		</g>
	</g>
	<g>
		<g>
			<path class="st1" d="M74.2,89.3c-1.8,0-3.2,1.5-3.2,3.3c0,1.8,1.5,3.3,3.3,3.3c1.8,0,3.3-1.5,3.2-3.3
				C77.5,90.7,76,89.3,74.2,89.3z M74.2,92.6c-0.1,0-0.1-0.1-0.1-0.1l0.1-0.1V92.6z"/>
		</g>
	</g>
	<g>
		<g>
			<path class="st0" d="M56.7,90.8h-32c-0.9,0-1.7,0.8-1.7,1.7s0.8,1.7,1.7,1.7h32c0.9,0,1.7-0.8,1.7-1.7S57.6,90.8,56.7,90.8z"/>
		</g>
	</g>
	<g>
		<g>
			<path class="st0" d="M67.1,90.8h-4.5c-0.9,0-1.7,0.8-1.7,1.7s0.8,1.7,1.7,1.7h4.5c0.9,0,1.7-0.8,1.7-1.7S68,90.8,67.1,90.8z"/>
		</g>
	</g>
	<g>
		<g>
			<path class="st0" d="M78.9,43.8H21.7c-2.8,0-5,2.3-5,5v6.7c0,2.8,2.3,5,5,5h57.2c2.8,0,5-2.3,5-5v-6.7
				C83.9,46,81.7,43.8,78.9,43.8z M80.6,55.5c0,0.9-0.8,1.7-1.7,1.7H21.7c-0.9,0-1.7-0.8-1.7-1.7v-6.7c0-0.9,0.8-1.7,1.7-1.7h57.2
				c0.9,0,1.7,0.8,1.7,1.7V55.5z"/>
		</g>
	</g>
	<g>
		<g>
			<path class="st1" d="M77,51.7c-0.3-1.8-2-3-3.8-2.6c-0.8,0.2-1.6,0.6-2.1,1.3c-0.5,0.7-0.7,1.6-0.5,2.4c0.3,1.6,1.6,2.7,3.2,2.7
				c0.2,0,0.4,0,0.5,0c0.9-0.1,1.6-0.6,2.1-1.3C76.9,53.4,77.1,52.6,77,51.7z M73.6,52.3l0.1-0.1L73.6,52.3
				C73.7,52.4,73.7,52.3,73.6,52.3z"/>
		</g>
	</g>
	<g>
		<g>
			<path class="st0" d="M56.3,50.5h-32c-0.9,0-1.7,0.8-1.7,1.7s0.8,1.7,1.7,1.7h32c0.9,0,1.7-0.8,1.7-1.7
				C58,51.2,57.3,50.5,56.3,50.5z"/>
		</g>
	</g>
	<g>
		<g>
			<path class="st0" d="M66,50.5h-4.5c-0.9,0-1.7,0.8-1.7,1.7s0.8,1.7,1.7,1.7H66c0.9,0,1.7-0.8,1.7-1.7
				C67.7,51.2,66.9,50.5,66,50.5z"/>
		</g>
	</g>
	<g>
		<g>
			<path class="st1" d="M43.1,27.4l-5-5c-0.7-0.7-1.7-0.7-2.4,0l-5,5c-0.6,0.7-0.6,1.7,0,2.4c0.7,0.6,1.7,0.6,2.3,0l2.2-2.2v11.1
				c0,0.9,0.8,1.7,1.7,1.7s1.7-0.8,1.7-1.7V27.6l2.2,2.2c0.7,0.6,1.7,0.6,2.4,0C43.7,29.1,43.7,28.1,43.1,27.4z"/>
		</g>
	</g>
	<g>
		<g>
			<path class="st1" d="M69.9,32.5c-0.7-0.6-1.7-0.6-2.3,0l-2.2,2.2V23.6c0-0.9-0.8-1.7-1.7-1.7c-0.9,0-1.7,0.8-1.7,1.7v11.1
				l-2.2-2.2c-0.7-0.6-1.7-0.6-2.4,0c-0.6,0.7-0.6,1.7,0,2.3l5,5c0.7,0.7,1.7,0.7,2.4,0l5-5C70.6,34.2,70.6,33.1,69.9,32.5z"/>
		</g>
	</g>
</g>
</svg>
