<?xml version="1.0" encoding="utf-8"?>
<!-- Generator: Adobe Illustrator 19.2.1, SVG Export Plug-In . SVG Version: 6.00 Build 0)  -->
<svg version="1.1" id="Layer_1" xmlns="http://www.w3.org/2000/svg" xmlns:xlink="http://www.w3.org/1999/xlink" x="0px" y="0px"
	 viewBox="0 0 52.8 92.2" style="enable-background:new 0 0 52.8 92.2;" xml:space="preserve">
<style type="text/css">
	.st0{fill:#010101;}
	.st1{fill:#E6E6E5;stroke:#010101;stroke-width:3;stroke-miterlimit:10;}
	.st2{fill:#D61F38;}
</style>
<path class="st0" d="M36.4,27.9L26.4,12.3c0.4-0.3,0.6-0.8,0.6-1.4V1.8c0-1-0.8-1.8-1.8-1.8H11.5c-1,0-1.8,0.8-1.8,1.8v9.1
	c0,0.6,0.2,1,0.6,1.4L0.3,27.9c-0.2,0.3-0.3,0.6-0.3,1v13.7v21.1v21.2c0,4,3.3,7.3,7.3,7.3c2.2,0,4.2-1,5.5-2.5
	c1.3,1.5,3.3,2.5,5.5,2.5c2.2,0,4.2-1,5.5-2.5c1.3,1.5,3.3,2.5,5.5,2.5c4,0,7.3-3.3,7.3-7.3V63.6V42.6V28.9
	C36.7,28.5,36.6,28.2,36.4,27.9z M13.3,3.6h10.1v5.5h-0.1h-10h-0.1L13.3,3.6L13.3,3.6z M14.3,12.7h8l10.7,16.7v11.3H3.6V29.4
	L14.3,12.7z M33.1,61.8H3.6V44.4h29.5V61.8z M29.4,88.6c-2,0-3.7-1.7-3.7-3.7c0-1-0.8-1.8-1.8-1.8c-1,0-1.8,0.8-1.8,1.8
	c0,2-1.7,3.7-3.7,3.7c-2,0-3.7-1.7-3.7-3.7c0-1-0.8-1.8-1.8-1.8c-1,0-1.8,0.8-1.8,1.8c0,2-1.7,3.7-3.7,3.7c-2,0-3.7-1.7-3.7-3.7
	V65.4h29.5v19.4C33.1,86.9,31.4,88.6,29.4,88.6z"/>
<circle class="st1" cx="37" cy="29" r="13.8"/>
<g>
	<path class="st2" d="M38.2,25.6l-0.8,0l-1.8,0.1c-0.9,0-1.5-0.1-2-0.3c-0.6-0.3-0.9-0.7-0.9-1.3c0-0.4,0.1-0.7,0.4-1
		c0.3-0.3,0.6-0.4,1-0.4h6.2c0.4,0,0.8,0.2,1.1,0.5c0.3,0.3,0.5,0.7,0.5,1.1c0,0.4-0.4,1.4-1.1,3c-0.3,0.6-0.6,1.3-1,2.1
		c-0.4,0.8-0.8,1.6-1.2,2.4l-1.5,3c-0.2,0.5-0.4,0.8-0.6,1c-0.3,0.3-0.7,0.4-1.1,0.4c-0.4,0-0.7-0.1-1.1-0.4s-0.5-0.6-0.5-1
		c0-0.3,0.3-1.2,1-2.7c0.6-1.3,1.2-2.7,1.9-4L38.2,25.6z"/>
</g>
</svg>
